# xmcd
#
# Track frame offsets:
#	150
#	20465
#	38587
#	55943
#	71188
#	87778
#	105740
#	120663
#	137003
#	150482
#
# Disc length: 2264
#
# Revision: 2
# Processed by: cddbd v1.5.1PL0 Copyright (c) Steve Scherf et al.
# Submitted via: audiograbber 1.80.04
# Normalized: r1:DSETVAR1
#
DISCID=7c08d60a
DTITLE=Various Artist - Laser Hits Country Vol. 9
DYEAR=2000
DGENRE=Country
TTITLE0=Reba McEntire - I'll Be
TTITLE1=Clay Walker - The Chain Of Love
TTITLE2=Lee Ann Womack - I Hope You Dance
TTITLE3=Chad Brock - Yes!
TTITLE4=Collin Raye - Couldn't Last A Moment
TTITLE5=Clay Davidson - Unconditional
TTITLE6=Eric Heatherly - Flowers On The Wall
TTITLE7=Rascal Flatts - Prayin' For Daylight
TTITLE8=Joe Diffie - It's Always Somethin'
TTITLE9=Dixie Chicks - Goodbye Earl
EXTD=
EXTT0=
EXTT1=
EXTT2=
EXTT3=
EXTT4=
EXTT5=
EXTT6=
EXTT7=
EXTT8=
EXTT9=
PLAYORDER=
